<?xml version="1.0" encoding="utf-8"?>
<!-- Generator: Adobe Illustrator 16.0.0, SVG Export Plug-In . SVG Version: 6.00 Build 0)  -->
<!DOCTYPE svg PUBLIC "-//W3C//DTD SVG 1.1//EN" "http://www.w3.org/Graphics/SVG/1.1/DTD/svg11.dtd" [
	<!ENTITY ns_extend "http://ns.adobe.com/Extensibility/1.0/">
	<!ENTITY ns_ai "http://ns.adobe.com/AdobeIllustrator/10.0/">
	<!ENTITY ns_graphs "http://ns.adobe.com/Graphs/1.0/">
	<!ENTITY ns_vars "http://ns.adobe.com/Variables/1.0/">
	<!ENTITY ns_imrep "http://ns.adobe.com/ImageReplacement/1.0/">
	<!ENTITY ns_sfw "http://ns.adobe.com/SaveForWeb/1.0/">
	<!ENTITY ns_custom "http://ns.adobe.com/GenericCustomNamespace/1.0/">
	<!ENTITY ns_adobe_xpath "http://ns.adobe.com/XPath/1.0/">
]>
<svg version="1.1" id="Layer_1" xmlns:x="&ns_extend;" xmlns:i="&ns_ai;" xmlns:graph="&ns_graphs;"
	 xmlns="http://www.w3.org/2000/svg" xmlns:xlink="http://www.w3.org/1999/xlink" x="0px" y="0px" width="512px" height="512px"
	 viewBox="0 0 512 512" enable-background="new 0 0 512 512" xml:space="preserve">
<metadata>
	<sfw  xmlns="&ns_sfw;">
		<slices></slices>
		<sliceSourceBounds  width="515" height="323" bottomLeftOrigin="true" y="-111" x="-208"></sliceSourceBounds>
	</sfw>
</metadata>
<path fill="#FFFFFF" stroke="#000000" stroke-width="3" stroke-miterlimit="10" d="M400,160c-5.312,0-10.562,0.375-15.792,1.125
	C354.334,120.417,307.188,96,256,96c-51.188,0-98.312,24.417-128.208,65.125c-5.23-0.75-10.48-1.125-15.792-1.125
	C50.25,160,0,210.25,0,272s50.25,112,112,112c13.688,0,27.084-2.5,39.709-7.333C180.666,401.917,217.5,416,256,416
	c38.542,0,75.333-14.083,104.291-39.333C372.916,381.5,386.312,384,400,384c61.75,0,112-50.25,112-112S461.75,160,400,160z M400,352
	c-17.125,0-32.916-5.5-45.938-14.667C330.584,365.624,295.624,384,256,384c-39.625,0-74.584-18.376-98.062-46.667
	C144.938,346.5,129.125,352,112,352c-44.188,0-80-35.812-80-80c0-44.188,35.812-80,80-80c10.812,0,21.062,2.208,30.438,6.083
	C163.667,156.667,206.291,128,256,128s92.334,28.667,113.541,70.083C378.938,194.208,389.209,192,400,192c44.188,0,80,35.812,80,80
	C480,316.188,444.188,352,400,352z"/>
</svg>
