<?xml version="1.0" encoding="utf-8"?>
<!-- Generator: Adobe Illustrator 16.0.0, SVG Export Plug-In . SVG Version: 6.00 Build 0)  -->
<!DOCTYPE svg PUBLIC "-//W3C//DTD SVG 1.1//EN" "http://www.w3.org/Graphics/SVG/1.1/DTD/svg11.dtd">
<svg version="1.1" id="Icons" xmlns="http://www.w3.org/2000/svg" xmlns:xlink="http://www.w3.org/1999/xlink" x="0px" y="0px"
	 width="100px" height="100px" viewBox="0 0 100 100" enable-background="new 0 0 100 100" xml:space="preserve">
<g id="XMLID_2_">
	<g>
		<g id="XMLID_1_">
			<g>
				<path fill="#EDF8E9" d="M52.24,93.44L51.1,94.98c-0.13,0.189-0.34,0.279-0.56,0.279c-0.23,0-0.44-0.09-0.56-0.279l-1.15-1.54
					c-0.5-0.69-5.65-7.73-11.53-16.94h26.48C57.89,85.71,52.75,92.76,52.24,93.44z"/>
			</g>
			<g>
				<path fill="none" stroke="#000000" stroke-width="1.5" stroke-miterlimit="10" d="M63.78,76.5
					c8.35-13.1,18.17-30.56,18.17-40.35c0-17.32-14.101-31.41-31.41-31.41c-17.33,0-31.42,14.09-31.42,31.41
					c0,9.79,9.82,27.25,18.18,40.35c5.88,9.21,11.03,16.25,11.53,16.94l1.15,1.54c0.12,0.189,0.33,0.279,0.56,0.279
					c0.22,0,0.43-0.09,0.56-0.279l1.141-1.54C52.75,92.76,57.89,85.71,63.78,76.5z"/>
				<line fill="none" stroke="#000000" stroke-width="0.5" stroke-miterlimit="10" x1="37.3" y1="76.5" x2="63.78" y2="76.5"/>
			</g>
		</g>
	</g>
</g>
</svg>
