<?xml version="1.0" encoding="utf-8"?>
<!-- Generator: Adobe Illustrator 16.0.0, SVG Export Plug-In . SVG Version: 6.00 Build 0)  -->
<!DOCTYPE svg PUBLIC "-//W3C//DTD SVG 1.1//EN" "http://www.w3.org/Graphics/SVG/1.1/DTD/svg11.dtd">
<svg version="1.1" id="Icons" xmlns="http://www.w3.org/2000/svg" xmlns:xlink="http://www.w3.org/1999/xlink" x="0px" y="0px"
	 width="100px" height="100px" viewBox="0 0 100 100" enable-background="new 0 0 100 100" xml:space="preserve">
<g id="XMLID_2_">
	<g>
		<g id="XMLID_1_">
			<g>
				<path fill="#006D2C" d="M50.54,4.74c17.31,0,31.41,14.09,31.41,31.41c0,16.67-28.5,55.64-29.71,57.291L51.1,94.98
					c-0.13,0.189-0.34,0.279-0.56,0.279c-0.23,0-0.44-0.09-0.56-0.279l-1.15-1.54c-1.21-1.65-29.71-40.62-29.71-57.291
					C19.12,18.83,33.21,4.74,50.54,4.74z"/>
			</g>
			<g>
				<path fill="none" stroke="#000000" stroke-width="1.5" stroke-miterlimit="10" d="M50.54,4.74c-17.33,0-31.42,14.09-31.42,31.41
					c0,16.67,28.5,55.64,29.71,57.291l1.15,1.54c0.12,0.189,0.33,0.279,0.56,0.279c0.22,0,0.43-0.09,0.56-0.279l1.141-1.54
					c1.21-1.65,29.71-40.62,29.71-57.291C81.95,18.83,67.85,4.74,50.54,4.74z"/>
			</g>
		</g>
	</g>
</g>
</svg>
