<?xml version="1.0" encoding="utf-8"?>
<!-- Generator: Adobe Illustrator 16.0.0, SVG Export Plug-In . SVG Version: 6.00 Build 0)  -->
<!DOCTYPE svg PUBLIC "-//W3C//DTD SVG 1.1//EN" "http://www.w3.org/Graphics/SVG/1.1/DTD/svg11.dtd" [
	<!ENTITY ns_extend "http://ns.adobe.com/Extensibility/1.0/">
	<!ENTITY ns_ai "http://ns.adobe.com/AdobeIllustrator/10.0/">
	<!ENTITY ns_graphs "http://ns.adobe.com/Graphs/1.0/">
	<!ENTITY ns_vars "http://ns.adobe.com/Variables/1.0/">
	<!ENTITY ns_imrep "http://ns.adobe.com/ImageReplacement/1.0/">
	<!ENTITY ns_sfw "http://ns.adobe.com/SaveForWeb/1.0/">
	<!ENTITY ns_custom "http://ns.adobe.com/GenericCustomNamespace/1.0/">
	<!ENTITY ns_adobe_xpath "http://ns.adobe.com/XPath/1.0/">
]>
<svg version="1.1" id="Icons" xmlns:x="&ns_extend;" xmlns:i="&ns_ai;" xmlns:graph="&ns_graphs;"
	 xmlns="http://www.w3.org/2000/svg" xmlns:xlink="http://www.w3.org/1999/xlink" x="0px" y="0px" width="100px" height="100px"
	 viewBox="0 0 100 100" enable-background="new 0 0 100 100" xml:space="preserve">
<metadata>
	<sfw  xmlns="&ns_sfw;">
		<slices></slices>
		<sliceSourceBounds  width="64.33" height="92.014" x="17.87" y="4.496" bottomLeftOrigin="true"></sliceSourceBounds>
	</sfw>
</metadata>
<g id="XMLID_2_">
	<g>
		<path fill="#D4DFD0" stroke="#595959" stroke-width="1.5" stroke-miterlimit="10" d="M63.779,76.5
			C57.889,85.71,52.75,92.76,52.24,93.439L51.1,94.98c-0.129,0.188-0.34,0.273-0.56,0.273c-0.23,0-0.44-0.09-0.56-0.273l-1.15-1.541
			C48.33,92.75,43.18,85.71,37.3,76.5H63.779z"/>
	</g>
	<g>
		<path fill="#FFFFFF" fill-opacity="0.7" stroke="#595959" stroke-width="1.5" stroke-miterlimit="10" d="M81.95,36.15
			c0,9.79-9.82,27.25-18.171,40.35H37.3c-8.36-13.1-18.18-30.56-18.18-40.35c0-17.32,14.09-31.41,31.42-31.41
			C67.85,4.74,81.95,18.83,81.95,36.15z"/>
		<path fill="none" stroke="#595959" stroke-width="1.5" stroke-miterlimit="10" d="M63.779,76.5
			C57.889,85.71,52.75,92.76,52.24,93.439L51.1,94.98c-0.129,0.188-0.34,0.273-0.56,0.273c-0.23,0-0.44-0.09-0.56-0.273l-1.15-1.541
			C48.33,92.75,43.18,85.71,37.3,76.5H63.779z"/>
	</g>
</g>
</svg>
