<?xml version="1.0" encoding="utf-8"?>
<!-- Generator: Adobe Illustrator 16.0.0, SVG Export Plug-In . SVG Version: 6.00 Build 0)  -->
<!DOCTYPE svg PUBLIC "-//W3C//DTD SVG 1.1//EN" "http://www.w3.org/Graphics/SVG/1.1/DTD/svg11.dtd" [
	<!ENTITY ns_extend "http://ns.adobe.com/Extensibility/1.0/">
	<!ENTITY ns_ai "http://ns.adobe.com/AdobeIllustrator/10.0/">
	<!ENTITY ns_graphs "http://ns.adobe.com/Graphs/1.0/">
	<!ENTITY ns_vars "http://ns.adobe.com/Variables/1.0/">
	<!ENTITY ns_imrep "http://ns.adobe.com/ImageReplacement/1.0/">
	<!ENTITY ns_sfw "http://ns.adobe.com/SaveForWeb/1.0/">
	<!ENTITY ns_custom "http://ns.adobe.com/GenericCustomNamespace/1.0/">
	<!ENTITY ns_adobe_xpath "http://ns.adobe.com/XPath/1.0/">
]>
<svg version="1.1" id="Icons" xmlns:x="&ns_extend;" xmlns:i="&ns_ai;" xmlns:graph="&ns_graphs;"
	 xmlns="http://www.w3.org/2000/svg" xmlns:xlink="http://www.w3.org/1999/xlink" x="0px" y="0px" width="100px" height="100px"
	 viewBox="0 0 100 100" enable-background="new 0 0 100 100" xml:space="preserve">
<metadata>
	<sfw  xmlns="&ns_sfw;">
		<slices></slices>
		<sliceSourceBounds  width="70.827" height="98.528" x="14.621" y="1.236" bottomLeftOrigin="true"></sliceSourceBounds>
	</sfw>
</metadata>
<g id="XMLID_2_">
	<g>
		<path fill="#D4DFD0" d="M63.779,76.5C57.889,85.71,52.75,92.76,52.24,93.439L51.1,94.98c-0.129,0.188-0.34,0.275-0.56,0.275
			c-0.23,0-0.44-0.09-0.56-0.275l-1.15-1.541C48.33,92.75,43.18,85.71,37.3,76.5H63.779z"/>
	</g>
	<g>
		<path fill="#FFFFFF" fill-opacity="0.7" stroke="#595959" stroke-width="1.5" stroke-miterlimit="10" d="M81.95,36.15
			c0,9.79-9.82,27.25-18.171,40.35H37.3c-8.36-13.1-18.18-30.56-18.18-40.35c0-17.32,14.09-31.41,31.42-31.41
			C67.85,4.74,81.95,18.83,81.95,36.15z"/>
		<path fill="none" stroke="#595959" stroke-width="1.5" stroke-miterlimit="10" d="M63.779,76.5
			C57.889,85.71,52.75,92.76,52.24,93.439L51.1,94.98c-0.129,0.188-0.34,0.275-0.56,0.275c-0.23,0-0.44-0.09-0.56-0.275l-1.15-1.541
			C48.33,92.75,43.18,85.71,37.3,76.5H63.779z"/>
	</g>
</g>
<g id="XMLID_1_">
	<g>
		<path fill="#FFFFFF" fill-opacity="0" d="M48.833,93.436c-1.21-1.645-29.711-40.606-29.711-57.284
			c0-17.317,14.082-31.414,31.414-31.414c17.315,0,31.414,14.096,31.414,31.414c0,16.668-28.502,55.638-29.714,57.284l-1.139,1.547
			c-0.127,0.187-0.338,0.281-0.562,0.281c-0.226,0-0.437-0.104-0.562-0.281L48.833,93.436z"/>
	</g>
	<g>
		<path fill="none" stroke="#D7191C" stroke-width="8" stroke-miterlimit="10" d="M50.535,4.736
			c-17.333,0-31.414,14.096-31.414,31.414c0,16.67,28.501,55.637,29.711,57.286l1.14,1.547c0.127,0.188,0.338,0.281,0.562,0.281
			c0.228,0,0.438-0.101,0.562-0.281l1.139-1.547c1.211-1.646,29.714-40.613,29.714-57.286C81.949,18.833,67.852,4.736,50.535,4.736z
			"/>
	</g>
</g>
</svg>
