<?xml version="1.0" encoding="utf-8"?>
<!-- Generator: Adobe Illustrator 16.0.0, SVG Export Plug-In . SVG Version: 6.00 Build 0)  -->
<!DOCTYPE svg PUBLIC "-//W3C//DTD SVG 1.1//EN" "http://www.w3.org/Graphics/SVG/1.1/DTD/svg11.dtd" [
	<!ENTITY ns_extend "http://ns.adobe.com/Extensibility/1.0/">
	<!ENTITY ns_ai "http://ns.adobe.com/AdobeIllustrator/10.0/">
	<!ENTITY ns_graphs "http://ns.adobe.com/Graphs/1.0/">
	<!ENTITY ns_vars "http://ns.adobe.com/Variables/1.0/">
	<!ENTITY ns_imrep "http://ns.adobe.com/ImageReplacement/1.0/">
	<!ENTITY ns_sfw "http://ns.adobe.com/SaveForWeb/1.0/">
	<!ENTITY ns_custom "http://ns.adobe.com/GenericCustomNamespace/1.0/">
	<!ENTITY ns_adobe_xpath "http://ns.adobe.com/XPath/1.0/">
]>
<svg version="1.1" id="Icons" xmlns:x="&ns_extend;" xmlns:i="&ns_ai;" xmlns:graph="&ns_graphs;"
	 xmlns="http://www.w3.org/2000/svg" xmlns:xlink="http://www.w3.org/1999/xlink" x="0px" y="0px" width="100px" height="100px"
	 viewBox="0 0 100 100" enable-background="new 0 0 100 100" xml:space="preserve">
<metadata>
	<sfw  xmlns="&ns_sfw;">
		<slices></slices>
		<sliceSourceBounds  width="70.828" height="98.528" x="14.61" y="1.236" bottomLeftOrigin="true"></sliceSourceBounds>
	</sfw>
</metadata>
<g id="XMLID_2_">
	<g>
		<path fill="#BAE4B3" d="M74.09,58.88c-8.54,16.37-21.061,33.47-21.85,34.55L51.1,94.98c-0.129,0.18-0.34,0.274-0.56,0.274
			c-0.23,0-0.44-0.09-0.56-0.274l-1.15-1.551C48.05,92.35,35.5,75.2,26.96,58.83h47.03L74.09,58.88z"/>
	</g>
	<g>
		<path fill="#FFFFFF" fill-opacity="0.7" stroke="#595959" stroke-width="1.5" stroke-miterlimit="10" d="M81.95,36.15
			c0,5.75-3.392,14.14-7.86,22.73l-0.1-0.05H26.96c-4.46-8.58-7.84-16.94-7.84-22.68c0-17.32,14.09-31.41,31.42-31.41
			C67.85,4.74,81.95,18.83,81.95,36.15z"/>
		<path fill="none" stroke="#595959" stroke-width="1.5" stroke-miterlimit="10" d="M74.09,58.88
			c-8.54,16.37-21.061,33.47-21.85,34.55L51.1,94.98c-0.129,0.18-0.34,0.274-0.56,0.274c-0.23,0-0.44-0.09-0.56-0.274l-1.15-1.551
			C48.05,92.35,35.5,75.2,26.96,58.83h47.03L74.09,58.88z"/>
		<line fill="none" stroke="#595959" stroke-width="0.5" stroke-miterlimit="10" x1="26.96" y1="58.83" x2="26.93" y2="58.83"/>
	</g>
</g>
<g id="XMLID_1_">
	<g>
		<path fill="#FFFFFF" fill-opacity="0" d="M48.824,93.436c-1.21-1.646-29.711-40.606-29.711-57.285
			c0-17.317,14.082-31.414,31.415-31.414c17.315,0,31.412,14.096,31.412,31.414c0,16.669-28.5,55.637-29.711,57.285l-1.14,1.547
			c-0.127,0.187-0.338,0.281-0.562,0.281c-0.224,0-0.437-0.104-0.562-0.281L48.824,93.436z"/>
	</g>
	<g>
		<path fill="none" stroke="#92CD00" stroke-width="8" stroke-miterlimit="10" d="M50.525,4.736
			c-17.333,0-31.416,14.096-31.416,31.414c0,16.67,28.501,55.637,29.711,57.286l1.14,1.547c0.127,0.188,0.338,0.281,0.562,0.281
			c0.228,0,0.438-0.101,0.562-0.281l1.142-1.547c1.211-1.646,29.711-40.611,29.711-57.286C81.938,18.833,67.843,4.736,50.525,4.736z
			"/>
	</g>
</g>
</svg>
