<?xml version="1.0" encoding="utf-8"?>
<!-- Generator: Adobe Illustrator 16.0.0, SVG Export Plug-In . SVG Version: 6.00 Build 0)  -->
<!DOCTYPE svg PUBLIC "-//W3C//DTD SVG 1.1//EN" "http://www.w3.org/Graphics/SVG/1.1/DTD/svg11.dtd">
<svg version="1.1" id="Icons" xmlns="http://www.w3.org/2000/svg" xmlns:xlink="http://www.w3.org/1999/xlink" x="0px" y="0px"
	 width="100px" height="100px" viewBox="0 0 100 100" enable-background="new 0 0 100 100" xml:space="preserve">
<g id="XMLID_2_">
	<g>
		<g id="XMLID_1_">
			<g>
				<path fill="#74C476" d="M81.4,40.69C77.45,58.98,53.35,91.93,52.24,93.44L51.1,94.98c-0.13,0.189-0.34,0.279-0.56,0.279
					c-0.23,0-0.44-0.09-0.56-0.279l-1.15-1.54C47.72,91.93,23.61,58.96,19.67,40.67h61.61L81.4,40.69z"/>
			</g>
			<g>
				<path fill="none" stroke="#000000" stroke-width="1.5" stroke-miterlimit="10" d="M81.4,40.69c0.35-1.64,0.55-3.16,0.55-4.54
					c0-17.32-14.101-31.41-31.41-31.41c-17.33,0-31.42,14.09-31.42,31.41c0,1.37,0.2,2.89,0.55,4.52
					c3.94,18.29,28.05,51.26,29.16,52.771l1.15,1.54c0.12,0.189,0.33,0.279,0.56,0.279c0.22,0,0.43-0.09,0.56-0.279l1.141-1.54
					C53.35,91.93,77.45,58.98,81.4,40.69z"/>
				<line fill="none" stroke="#000000" stroke-width="0.5" stroke-miterlimit="10" x1="19.67" y1="40.67" x2="81.28" y2="40.67"/>
			</g>
		</g>
	</g>
</g>
</svg>
