<?xml version="1.0" encoding="utf-8"?>
<!-- Generator: Adobe Illustrator 16.0.0, SVG Export Plug-In . SVG Version: 6.00 Build 0)  -->
<!DOCTYPE svg PUBLIC "-//W3C//DTD SVG 1.1//EN" "http://www.w3.org/Graphics/SVG/1.1/DTD/svg11.dtd">
<svg version="1.1" id="Icons" xmlns="http://www.w3.org/2000/svg" xmlns:xlink="http://www.w3.org/1999/xlink" x="0px" y="0px"
	 width="100px" height="100px" viewBox="0 0 100 100" enable-background="new 0 0 100 100" xml:space="preserve">
<g id="XMLID_1_">
	<g>
		<g id="XMLID_2_">
			<g>
				<path fill="#FCAE91" d="M74.09,58.88c-8.54,16.37-21.06,33.47-21.85,34.55L51.1,94.98c-0.13,0.18-0.34,0.279-0.56,0.279
					c-0.23,0-0.44-0.09-0.56-0.279l-1.15-1.551C48.05,92.35,35.5,75.2,26.96,58.83h47.03L74.09,58.88z"/>
			</g>
			<g>
				<path fill="none" stroke="#000000" stroke-width="1.5" stroke-miterlimit="10" d="M74.09,58.88c4.47-8.59,7.86-16.98,7.86-22.73
					c0-17.32-14.101-31.41-31.41-31.41c-17.33,0-31.42,14.09-31.42,31.41c0,5.74,3.38,14.1,7.84,22.68
					c8.54,16.37,21.09,33.52,21.87,34.6l1.15,1.551c0.12,0.189,0.33,0.279,0.56,0.279c0.22,0,0.43-0.1,0.56-0.279l1.141-1.551
					C53.03,92.35,65.55,75.25,74.09,58.88z"/>
				<polyline fill="none" stroke="#000000" stroke-width="0.5" stroke-miterlimit="10" points="26.93,58.83 26.96,58.83 
					73.99,58.83 				"/>
			</g>
		</g>
	</g>
</g>
</svg>
