<?xml version="1.0" encoding="utf-8"?>
<!-- Generator: Adobe Illustrator 16.0.0, SVG Export Plug-In . SVG Version: 6.00 Build 0)  -->
<!DOCTYPE svg PUBLIC "-//W3C//DTD SVG 1.1//EN" "http://www.w3.org/Graphics/SVG/1.1/DTD/svg11.dtd" [
	<!ENTITY ns_extend "http://ns.adobe.com/Extensibility/1.0/">
	<!ENTITY ns_ai "http://ns.adobe.com/AdobeIllustrator/10.0/">
	<!ENTITY ns_graphs "http://ns.adobe.com/Graphs/1.0/">
	<!ENTITY ns_vars "http://ns.adobe.com/Variables/1.0/">
	<!ENTITY ns_imrep "http://ns.adobe.com/ImageReplacement/1.0/">
	<!ENTITY ns_sfw "http://ns.adobe.com/SaveForWeb/1.0/">
	<!ENTITY ns_custom "http://ns.adobe.com/GenericCustomNamespace/1.0/">
	<!ENTITY ns_adobe_xpath "http://ns.adobe.com/XPath/1.0/">
]>
<svg version="1.1" id="Icons" xmlns:x="&ns_extend;" xmlns:i="&ns_ai;" xmlns:graph="&ns_graphs;"
	 xmlns="http://www.w3.org/2000/svg" xmlns:xlink="http://www.w3.org/1999/xlink" x="0px" y="0px" width="100px" height="100px"
	 viewBox="0 0 100 100" enable-background="new 0 0 100 100" xml:space="preserve">
<metadata>
	<sfw  xmlns="&ns_sfw;">
		<slices></slices>
		<sliceSourceBounds  width="70.827" height="98.527" x="14.626" y="1.236" bottomLeftOrigin="true"></sliceSourceBounds>
	</sfw>
</metadata>
<g id="XMLID_2_">
	<g>
		<path fill="#DE2D26" d="M81.95,36.15c0,16.67-28.5,55.64-29.71,57.292L51.1,94.98c-0.129,0.188-0.34,0.275-0.56,0.275
			c-0.23,0-0.44-0.09-0.56-0.275l-1.15-1.541C47.62,91.79,19.12,52.82,19.12,36.149c0-4.8,1.09-9.34,3.01-13.41l0.17,0.09h56.56
			l0.094-0.04C80.88,26.84,81.95,31.37,81.95,36.15z"/>
	</g>
	<g>
		<path fill="#FFFFFF" fill-opacity="0.7" stroke="#595959" stroke-width="1.5" stroke-miterlimit="10" d="M78.95,22.79l-0.091,0.04
			H22.3l-0.17-0.09c5.04-10.63,15.87-18,28.41-18C63.07,4.74,73.93,12.12,78.95,22.79z"/>
		<path fill="none" stroke="#595959" stroke-width="1.5" stroke-miterlimit="10" d="M81.95,36.15c0,16.67-28.5,55.64-29.71,57.292
			L51.1,94.98c-0.129,0.188-0.34,0.275-0.56,0.275c-0.23,0-0.44-0.09-0.56-0.275l-1.15-1.541C47.62,91.79,19.12,52.82,19.12,36.149
			c0-4.8,1.09-9.34,3.01-13.41l0.17,0.09h56.56l0.094-0.04C80.88,26.84,81.95,31.37,81.95,36.15z"/>
	</g>
</g>
<g id="XMLID_1_">
	<g>
		<path fill="#FFFFFF" fill-opacity="0" d="M48.837,93.436c-1.21-1.645-29.711-40.607-29.711-57.285
			c0-17.317,14.082-31.414,31.413-31.414c17.316,0,31.414,14.096,31.414,31.414c0,16.669-28.502,55.638-29.713,57.285l-1.139,1.547
			c-0.127,0.186-0.338,0.281-0.562,0.281c-0.226,0-0.437-0.102-0.562-0.281L48.837,93.436z"/>
	</g>
	<g>
		<path fill="none" stroke="#92CD00" stroke-width="8" stroke-miterlimit="10" d="M50.539,4.737
			c-17.332,0-31.413,14.096-31.413,31.414c0,16.669,28.501,55.638,29.711,57.285l1.14,1.547c0.127,0.188,0.338,0.281,0.562,0.281
			c0.227,0,0.438-0.098,0.562-0.281l1.139-1.547c1.211-1.645,29.713-40.61,29.713-57.285C81.953,18.833,67.855,4.737,50.539,4.737z"
			/>
	</g>
</g>
</svg>
