<?xml version="1.0" encoding="utf-8"?>
<!-- Generator: Adobe Illustrator 16.0.0, SVG Export Plug-In . SVG Version: 6.00 Build 0)  -->
<!DOCTYPE svg PUBLIC "-//W3C//DTD SVG 1.1//EN" "http://www.w3.org/Graphics/SVG/1.1/DTD/svg11.dtd">
<svg version="1.1" id="Icons" xmlns="http://www.w3.org/2000/svg" xmlns:xlink="http://www.w3.org/1999/xlink" x="0px" y="0px"
	 width="100px" height="100px" viewBox="0 0 100 100" enable-background="new 0 0 100 100" xml:space="preserve">
<g id="XMLID_1_">
	<g>
		<g id="XMLID_2_">
			<g>
				<path fill="#DE2D26" d="M78.95,22.79c1.93,4.05,3,8.58,3,13.36c0,16.67-28.5,55.64-29.71,57.291L51.1,94.98
					c-0.13,0.189-0.34,0.279-0.56,0.279c-0.23,0-0.44-0.09-0.56-0.279l-1.15-1.54c-1.21-1.65-29.71-40.62-29.71-57.291
					c0-4.8,1.09-9.34,3.01-13.41l0.17,0.09H78.86L78.95,22.79z"/>
			</g>
			<g>
				<path fill="none" stroke="#000000" stroke-width="1.5" stroke-miterlimit="10" d="M78.95,22.79
					C73.93,12.12,63.07,4.74,50.54,4.74c-12.54,0-23.37,7.37-28.41,18c-1.92,4.07-3.01,8.61-3.01,13.41
					c0,16.67,28.5,55.64,29.71,57.291l1.15,1.54c0.12,0.189,0.33,0.279,0.56,0.279c0.22,0,0.43-0.09,0.56-0.279l1.141-1.54
					c1.21-1.65,29.71-40.62,29.71-57.291C81.95,31.37,80.88,26.84,78.95,22.79z"/>
				<line fill="none" stroke="#000000" stroke-width="0.5" stroke-miterlimit="10" x1="22.3" y1="22.83" x2="78.86" y2="22.83"/>
			</g>
		</g>
	</g>
</g>
</svg>
