<?xml version="1.0" encoding="utf-8"?>
<!-- Generator: Adobe Illustrator 16.0.0, SVG Export Plug-In . SVG Version: 6.00 Build 0)  -->
<!DOCTYPE svg PUBLIC "-//W3C//DTD SVG 1.1//EN" "http://www.w3.org/Graphics/SVG/1.1/DTD/svg11.dtd" [
	<!ENTITY ns_extend "http://ns.adobe.com/Extensibility/1.0/">
	<!ENTITY ns_ai "http://ns.adobe.com/AdobeIllustrator/10.0/">
	<!ENTITY ns_graphs "http://ns.adobe.com/Graphs/1.0/">
	<!ENTITY ns_vars "http://ns.adobe.com/Variables/1.0/">
	<!ENTITY ns_imrep "http://ns.adobe.com/ImageReplacement/1.0/">
	<!ENTITY ns_sfw "http://ns.adobe.com/SaveForWeb/1.0/">
	<!ENTITY ns_custom "http://ns.adobe.com/GenericCustomNamespace/1.0/">
	<!ENTITY ns_adobe_xpath "http://ns.adobe.com/XPath/1.0/">
]>
<svg version="1.1" id="Icons" xmlns:x="&ns_extend;" xmlns:i="&ns_ai;" xmlns:graph="&ns_graphs;"
	 xmlns="http://www.w3.org/2000/svg" xmlns:xlink="http://www.w3.org/1999/xlink" x="0px" y="0px" width="100px" height="100px"
	 viewBox="0 0 100 100" enable-background="new 0 0 100 100" xml:space="preserve">
<metadata>
	<sfw  xmlns="&ns_sfw;">
		<slices></slices>
		<sliceSourceBounds  width="70.828" height="98.528" y="1.236" x="14.622" bottomLeftOrigin="true"></sliceSourceBounds>
	</sfw>
</metadata>
<g id="XMLID_2_">
	<g>
		<path fill="#DE2D26" d="M81.95,36.15c0,16.67-28.5,55.64-29.71,57.292L51.1,94.98c-0.129,0.188-0.34,0.274-0.56,0.274
			c-0.23,0-0.44-0.09-0.56-0.274l-1.15-1.541C47.62,91.79,19.12,52.82,19.12,36.149c0-4.8,1.09-9.34,3.01-13.41l0.17,0.09h56.56
			l0.095-0.04C80.88,26.84,81.95,31.37,81.95,36.15z"/>
	</g>
	<g>
		<path fill="#FFFFFF" fill-opacity="0.7" stroke="#595959" stroke-width="1.5" stroke-miterlimit="10" d="M78.95,22.79l-0.091,0.04
			H22.3l-0.17-0.09c5.04-10.63,15.87-18,28.41-18C63.07,4.74,73.93,12.12,78.95,22.79z"/>
		<path fill="none" stroke="#595959" stroke-width="1.5" stroke-miterlimit="10" d="M81.95,36.15c0,16.67-28.5,55.64-29.71,57.292
			L51.1,94.98c-0.129,0.188-0.34,0.274-0.56,0.274c-0.23,0-0.44-0.09-0.56-0.274l-1.15-1.541C47.62,91.79,19.12,52.82,19.12,36.149
			c0-4.8,1.09-9.34,3.01-13.41l0.17,0.09h56.56l0.095-0.04C80.88,26.84,81.95,31.37,81.95,36.15z"/>
	</g>
</g>
<g id="XMLID_1_">
	<g>
		<path fill="#FFFFFF" fill-opacity="0" d="M48.834,93.436c-1.21-1.645-29.711-40.608-29.711-57.284
			c0-17.317,14.082-31.414,31.414-31.414c17.316,0,31.412,14.096,31.412,31.414c0,16.668-28.5,55.638-29.711,57.284L51.1,94.982
			c-0.127,0.186-0.338,0.281-0.562,0.281c-0.225,0-0.436-0.103-0.561-0.281L48.834,93.436z"/>
	</g>
	<g>
		<path fill="none" stroke="#595959" stroke-width="8" stroke-miterlimit="10" d="M50.537,4.736
			c-17.334,0-31.415,14.096-31.415,31.414c0,16.67,28.501,55.637,29.711,57.286l1.14,1.547c0.127,0.186,0.338,0.281,0.564,0.281
			c0.227,0,0.438-0.101,0.561-0.281l1.141-1.547C53.45,91.789,81.95,52.822,81.95,36.15C81.949,18.833,67.854,4.736,50.537,4.736z"
			/>
	</g>
</g>
</svg>
