<?xml version="1.0" encoding="utf-8"?>
<!-- Generator: Adobe Illustrator 16.0.0, SVG Export Plug-In . SVG Version: 6.00 Build 0)  -->
<!DOCTYPE svg PUBLIC "-//W3C//DTD SVG 1.1//EN" "http://www.w3.org/Graphics/SVG/1.1/DTD/svg11.dtd">
<svg version="1.1" id="Icons" xmlns="http://www.w3.org/2000/svg" xmlns:xlink="http://www.w3.org/1999/xlink" x="0px" y="0px"
	 width="100px" height="100px" viewBox="0 0 100 100" enable-background="new 0 0 100 100" xml:space="preserve">
<g id="XMLID_2_">
	<g>
		<path fill="#BDD7E7" d="M73.988,58.828l0.099,0.056c-8.539,16.361-21.06,33.468-21.848,34.551l-1.14,1.547
			c-0.126,0.184-0.337,0.282-0.562,0.282c-0.225,0-0.436-0.099-0.562-0.282l-1.14-1.547c-0.788-1.083-13.336-18.231-21.875-34.606
			H73.988z"/>
	</g>
	<g>
		<path fill="none" stroke="#000000" stroke-width="1.5" stroke-miterlimit="10" d="M74.087,58.884
			c4.474-8.595,7.863-16.979,7.863-22.733c0-17.317-14.096-31.414-31.413-31.414c-17.332,0-31.413,14.096-31.413,31.414
			c0,5.739,3.376,14.096,7.836,22.677c8.539,16.375,21.087,33.523,21.875,34.606l1.14,1.547c0.126,0.184,0.337,0.282,0.562,0.282
			c0.226,0,0.437-0.099,0.562-0.282l1.14-1.547C53.027,92.352,65.548,75.245,74.087,58.884z"/>
		<polyline fill="none" stroke="#000000" stroke-width="0.5" stroke-miterlimit="10" points="26.932,58.828 26.96,58.828 
			73.988,58.828 		"/>
	</g>
</g>
</svg>
