<?xml version="1.0" encoding="utf-8"?>
<!-- Generator: Adobe Illustrator 16.0.0, SVG Export Plug-In . SVG Version: 6.00 Build 0)  -->
<!DOCTYPE svg PUBLIC "-//W3C//DTD SVG 1.1//EN" "http://www.w3.org/Graphics/SVG/1.1/DTD/svg11.dtd">
<svg version="1.1" id="Icons" xmlns="http://www.w3.org/2000/svg" xmlns:xlink="http://www.w3.org/1999/xlink" x="0px" y="0px"
	 width="100px" height="100px" viewBox="0 0 100 100" enable-background="new 0 0 100 100" xml:space="preserve">
<g id="XMLID_2_">
	<g>
		<path fill="#6BAED6" d="M52.239,93.435l-1.14,1.547c-0.126,0.184-0.337,0.282-0.562,0.282c-0.225,0-0.436-0.099-0.562-0.282
			l-1.14-1.547c-1.111-1.505-25.223-34.48-29.162-52.768h61.603l0.126,0.028C77.449,58.982,53.351,91.93,52.239,93.435z"/>
	</g>
	<g>
		<path fill="none" stroke="#000000" stroke-width="1.5" stroke-miterlimit="10" d="M81.401,40.695
			c0.353-1.646,0.549-3.166,0.549-4.544c0-17.317-14.096-31.414-31.413-31.414c-17.332,0-31.413,14.096-31.413,31.414
			c0,1.364,0.197,2.884,0.549,4.516c3.939,18.288,28.051,51.263,29.162,52.768l1.14,1.547c0.126,0.184,0.337,0.282,0.562,0.282
			c0.226,0,0.437-0.099,0.562-0.282l1.14-1.547C53.351,91.93,77.449,58.982,81.401,40.695z"/>
		<line fill="none" stroke="#000000" stroke-width="0.5" stroke-miterlimit="10" x1="19.673" y1="40.667" x2="81.275" y2="40.667"/>
	</g>
</g>
</svg>
