<?xml version="1.0" encoding="utf-8"?>
<!-- Generator: Adobe Illustrator 16.0.0, SVG Export Plug-In . SVG Version: 6.00 Build 0)  -->
<!DOCTYPE svg PUBLIC "-//W3C//DTD SVG 1.1//EN" "http://www.w3.org/Graphics/SVG/1.1/DTD/svg11.dtd">
<svg version="1.1" id="Icons" xmlns="http://www.w3.org/2000/svg" xmlns:xlink="http://www.w3.org/1999/xlink" x="0px" y="0px"
	 width="100px" height="100px" viewBox="0 0 100 100" enable-background="new 0 0 100 100" xml:space="preserve">
<g id="XMLID_2_">
	<g>
		<path fill="#3182BD" d="M52.239,93.435l-1.14,1.547c-0.126,0.184-0.337,0.282-0.562,0.282c-0.225,0-0.436-0.099-0.562-0.282
			l-1.14-1.547c-1.21-1.646-29.711-40.613-29.711-57.284c0-4.797,1.083-9.341,3.01-13.407l0.169,0.084h56.552l0.099-0.042
			c1.927,4.052,2.996,8.582,2.996,13.365C81.95,52.821,53.449,91.788,52.239,93.435z"/>
	</g>
	<g>
		<path fill="none" stroke="#000000" stroke-width="1.5" stroke-miterlimit="10" d="M78.954,22.786
			C73.932,12.123,63.071,4.737,50.537,4.737s-23.366,7.372-28.403,18.007c-1.927,4.065-3.01,8.609-3.01,13.407
			c0,16.67,28.501,55.637,29.711,57.284l1.14,1.547c0.126,0.184,0.337,0.282,0.562,0.282c0.226,0,0.437-0.099,0.562-0.282
			l1.14-1.547c1.21-1.646,29.711-40.613,29.711-57.284C81.95,31.368,80.881,26.838,78.954,22.786z"/>
		<line fill="none" stroke="#000000" stroke-width="0.5" stroke-miterlimit="10" x1="22.303" y1="22.829" x2="78.855" y2="22.829"/>
	</g>
</g>
</svg>
