<?xml version="1.0" encoding="utf-8"?>
<!-- Generator: Adobe Illustrator 16.0.0, SVG Export Plug-In . SVG Version: 6.00 Build 0)  -->
<!DOCTYPE svg PUBLIC "-//W3C//DTD SVG 1.1//EN" "http://www.w3.org/Graphics/SVG/1.1/DTD/svg11.dtd">
<svg version="1.1" id="Icons" xmlns="http://www.w3.org/2000/svg" xmlns:xlink="http://www.w3.org/1999/xlink" x="0px" y="0px"
	 width="100px" height="100px" viewBox="0 0 100 100" enable-background="new 0 0 100 100" xml:space="preserve">
<g id="XMLID_2_">
	<g>
		<path fill="#EFF3FF" d="M48.835,93.435c-0.506-0.689-5.655-7.724-11.536-16.938h26.476c-5.881,9.214-11.029,16.262-11.536,16.938
			l-1.14,1.547c-0.126,0.184-0.337,0.282-0.562,0.282c-0.225,0-0.436-0.099-0.562-0.282L48.835,93.435z"/>
	</g>
	<g>
		<path fill="none" stroke="#000000" stroke-width="1.5" stroke-miterlimit="10" d="M63.775,76.497
			C72.131,63.399,81.95,45.942,81.95,36.151c0-17.317-14.096-31.414-31.413-31.414c-17.332,0-31.413,14.096-31.413,31.414
			c0,9.791,9.819,27.249,18.175,40.346c5.88,9.214,11.029,16.248,11.536,16.938l1.14,1.547c0.126,0.184,0.337,0.282,0.562,0.282
			c0.226,0,0.437-0.099,0.562-0.282l1.14-1.547C52.746,92.759,57.895,85.711,63.775,76.497z"/>
		<line fill="none" stroke="#000000" stroke-width="0.5" stroke-miterlimit="10" x1="37.299" y1="76.497" x2="63.775" y2="76.497"/>
	</g>
</g>
</svg>
