<?xml version="1.0" encoding="utf-8"?>
<!-- Generator: Adobe Illustrator 16.0.0, SVG Export Plug-In . SVG Version: 6.00 Build 0)  -->
<!DOCTYPE svg PUBLIC "-//W3C//DTD SVG 1.1//EN" "http://www.w3.org/Graphics/SVG/1.1/DTD/svg11.dtd">
<svg version="1.1" id="Icons" xmlns="http://www.w3.org/2000/svg" xmlns:xlink="http://www.w3.org/1999/xlink" x="0px" y="0px"
	 width="100px" height="100px" viewBox="0 0 100 100" enable-background="new 0 0 100 100" xml:space="preserve">
<g id="XMLID_2_">
	<g>
		<path fill="#6BAED6" d="M81.4,40.69C77.45,58.98,53.35,91.93,52.24,93.44L51.1,94.98c-0.13,0.189-0.34,0.279-0.56,0.279
			c-0.23,0-0.44-0.09-0.56-0.279l-1.15-1.54C47.72,91.93,23.61,58.96,19.67,40.67h61.61L81.4,40.69z"/>
	</g>
	<g>
		<path fill="#FFFFFF" opacity="0.7" stroke="#000000" stroke-width="1.5" stroke-miterlimit="10" d="M81.95,36.15c0,1.38-0.2,2.9-0.55,4.54
			l-0.12-0.02H19.67c-0.35-1.63-0.55-3.15-0.55-4.52c0-17.32,14.09-31.41,31.42-31.41C67.85,4.74,81.95,18.83,81.95,36.15z"/>
		<path fill="none" stroke="#000000" stroke-width="1.5" stroke-miterlimit="10" d="M81.4,40.69
			C77.45,58.98,53.35,91.93,52.24,93.44L51.1,94.98c-0.13,0.189-0.34,0.279-0.56,0.279c-0.23,0-0.44-0.09-0.56-0.279l-1.15-1.54
			C47.72,91.93,23.61,58.96,19.67,40.67h61.61L81.4,40.69z"/>
	</g>
</g>
</svg>
