<?xml version="1.0" encoding="utf-8"?>
<!-- Generator: Adobe Illustrator 16.0.0, SVG Export Plug-In . SVG Version: 6.00 Build 0)  -->
<!DOCTYPE svg PUBLIC "-//W3C//DTD SVG 1.1//EN" "http://www.w3.org/Graphics/SVG/1.1/DTD/svg11.dtd">
<svg version="1.1" id="Icons" xmlns="http://www.w3.org/2000/svg" xmlns:xlink="http://www.w3.org/1999/xlink" x="0px" y="0px"
	 width="100px" height="100px" viewBox="0 0 100 100" enable-background="new 0 0 100 100" xml:space="preserve">
<g id="XMLID_2_">
	<g>
		<path fill="#3182BD" d="M81.95,36.15c0,16.67-28.5,55.64-29.71,57.291L51.1,94.98c-0.13,0.189-0.34,0.279-0.56,0.279
			c-0.23,0-0.44-0.09-0.56-0.279l-1.15-1.54c-1.21-1.65-29.71-40.62-29.71-57.291c0-4.8,1.09-9.34,3.01-13.41l0.17,0.09H78.86
			l0.09-0.04C80.88,26.84,81.95,31.37,81.95,36.15z"/>
	</g>
	<g>
		<path fill="#FFFFFF" opacity="0.7" stroke="#000000" stroke-width="1.5" stroke-miterlimit="10" d="M78.95,22.79l-0.09,0.04H22.3l-0.17-0.09
			c5.04-10.63,15.87-18,28.41-18C63.07,4.74,73.93,12.12,78.95,22.79z"/>
		<path fill="none" stroke="#000000" stroke-width="1.5" stroke-miterlimit="10" d="M81.95,36.15c0,16.67-28.5,55.64-29.71,57.291
			L51.1,94.98c-0.13,0.189-0.34,0.279-0.56,0.279c-0.23,0-0.44-0.09-0.56-0.279l-1.15-1.54c-1.21-1.65-29.71-40.62-29.71-57.291
			c0-4.8,1.09-9.34,3.01-13.41l0.17,0.09H78.86l0.09-0.04C80.88,26.84,81.95,31.37,81.95,36.15z"/>
	</g>
</g>
</svg>
