<?xml version="1.0" encoding="utf-8"?>
<!-- Generator: Adobe Illustrator 16.0.0, SVG Export Plug-In . SVG Version: 6.00 Build 0)  -->
<!DOCTYPE svg PUBLIC "-//W3C//DTD SVG 1.1//EN" "http://www.w3.org/Graphics/SVG/1.1/DTD/svg11.dtd" [
	<!ENTITY ns_extend "http://ns.adobe.com/Extensibility/1.0/">
	<!ENTITY ns_ai "http://ns.adobe.com/AdobeIllustrator/10.0/">
	<!ENTITY ns_graphs "http://ns.adobe.com/Graphs/1.0/">
	<!ENTITY ns_vars "http://ns.adobe.com/Variables/1.0/">
	<!ENTITY ns_imrep "http://ns.adobe.com/ImageReplacement/1.0/">
	<!ENTITY ns_sfw "http://ns.adobe.com/SaveForWeb/1.0/">
	<!ENTITY ns_custom "http://ns.adobe.com/GenericCustomNamespace/1.0/">
	<!ENTITY ns_adobe_xpath "http://ns.adobe.com/XPath/1.0/">
]>
<svg version="1.1" id="Icons" xmlns:x="&ns_extend;" xmlns:i="&ns_ai;" xmlns:graph="&ns_graphs;"
	 xmlns="http://www.w3.org/2000/svg" xmlns:xlink="http://www.w3.org/1999/xlink" x="0px" y="0px" width="100px" height="100px"
	 viewBox="0 0 100 100" enable-background="new 0 0 100 100" xml:space="preserve">
<metadata>
	<sfw  xmlns="&ns_sfw;">
		<slices></slices>
		<sliceSourceBounds  y="1.244" x="14.62" bottomLeftOrigin="true" width="70.83" height="98.516"></sliceSourceBounds>
	</sfw>
</metadata>
<g id="XMLID_2_">
	<g>
		<path fill="#6BAED6" d="M81.4,40.69C77.45,58.98,53.35,91.93,52.24,93.439L51.1,94.98c-0.129,0.188-0.34,0.275-0.56,0.275
			c-0.23,0-0.44-0.09-0.56-0.275l-1.15-1.541c-1.11-1.51-25.22-34.479-29.16-52.771h61.609L81.4,40.69z"/>
	</g>
	<g>
		
			<path fill="#FFFFFF" fill-opacity="0.7" stroke="#D7191C" stroke-width="8" stroke-linecap="round" stroke-linejoin="round" stroke-miterlimit="10" d="
			M81.95,36.15c0,1.38-0.2,2.9-0.55,4.54l-0.121-0.02H19.67c-0.35-1.63-0.55-3.15-0.55-4.52c0-17.32,14.09-31.41,31.42-31.41
			C67.85,4.74,81.95,18.83,81.95,36.15z"/>
		<path fill="none" stroke="#D7191C" stroke-width="8" stroke-linecap="round" stroke-linejoin="round" stroke-miterlimit="10" d="
			M81.4,40.69C77.45,58.98,53.35,91.93,52.24,93.439L51.1,94.98c-0.129,0.188-0.34,0.275-0.56,0.275c-0.23,0-0.44-0.09-0.56-0.275
			l-1.15-1.541c-1.11-1.51-25.22-34.479-29.16-52.771h61.609L81.4,40.69z"/>
	</g>
</g>
</svg>
