<?xml version="1.0" encoding="utf-8"?>
<!-- Generator: Adobe Illustrator 16.0.0, SVG Export Plug-In . SVG Version: 6.00 Build 0)  -->
<!DOCTYPE svg PUBLIC "-//W3C//DTD SVG 1.1//EN" "http://www.w3.org/Graphics/SVG/1.1/DTD/svg11.dtd" [
	<!ENTITY ns_extend "http://ns.adobe.com/Extensibility/1.0/">
	<!ENTITY ns_ai "http://ns.adobe.com/AdobeIllustrator/10.0/">
	<!ENTITY ns_graphs "http://ns.adobe.com/Graphs/1.0/">
	<!ENTITY ns_vars "http://ns.adobe.com/Variables/1.0/">
	<!ENTITY ns_imrep "http://ns.adobe.com/ImageReplacement/1.0/">
	<!ENTITY ns_sfw "http://ns.adobe.com/SaveForWeb/1.0/">
	<!ENTITY ns_custom "http://ns.adobe.com/GenericCustomNamespace/1.0/">
	<!ENTITY ns_adobe_xpath "http://ns.adobe.com/XPath/1.0/">
]>
<svg version="1.1" id="Icons" xmlns:x="&ns_extend;" xmlns:i="&ns_ai;" xmlns:graph="&ns_graphs;"
	 xmlns="http://www.w3.org/2000/svg" xmlns:xlink="http://www.w3.org/1999/xlink" x="0px" y="0px" width="100px" height="100px"
	 viewBox="0 0 100 100" enable-background="new 0 0 100 100" xml:space="preserve">
<metadata>
	<sfw  xmlns="&ns_sfw;">
		<slices></slices>
		<sliceSourceBounds  width="64.33" height="92.019" bottomLeftOrigin="true" x="17.87" y="4.491"></sliceSourceBounds>
	</sfw>
</metadata>
<g id="XMLID_2_">
	<g>
		<path fill="#3182BD" d="M81.95,36.15c0,16.67-28.5,55.64-29.71,57.292L51.1,94.98c-0.129,0.188-0.34,0.278-0.56,0.278
			c-0.23,0-0.44-0.09-0.56-0.278l-1.15-1.541C47.62,91.79,19.12,52.82,19.12,36.149c0-4.8,1.09-9.34,3.01-13.41l0.17,0.09h56.56
			l0.091-0.04C80.88,26.84,81.95,31.37,81.95,36.15z"/>
	</g>
	<g>
		<path fill="#FFFFFF" stroke="#595959" stroke-width="1.5" stroke-miterlimit="10" enable-background="new    " d="M78.95,22.79
			l-0.091,0.04H22.3l-0.17-0.09c5.04-10.63,15.87-18,28.41-18C63.07,4.74,73.93,12.12,78.95,22.79z"/>
		<path fill="none" stroke="#595959" stroke-width="1.5" stroke-miterlimit="10" d="M81.95,36.15c0,16.67-28.5,55.64-29.71,57.292
			L51.1,94.98c-0.129,0.188-0.34,0.278-0.56,0.278c-0.23,0-0.44-0.09-0.56-0.278l-1.15-1.541C47.62,91.79,19.12,52.82,19.12,36.149
			c0-4.8,1.09-9.34,3.01-13.41l0.17,0.09h56.56l0.091-0.04C80.88,26.84,81.95,31.37,81.95,36.15z"/>
	</g>
</g>
</svg>
