<?xml version="1.0" encoding="utf-8"?>
<!-- Generator: Adobe Illustrator 16.0.0, SVG Export Plug-In . SVG Version: 6.00 Build 0)  -->
<!DOCTYPE svg PUBLIC "-//W3C//DTD SVG 1.1//EN" "http://www.w3.org/Graphics/SVG/1.1/DTD/svg11.dtd">
<svg version="1.1" id="Icons" xmlns="http://www.w3.org/2000/svg" xmlns:xlink="http://www.w3.org/1999/xlink" x="0px" y="0px"
	 width="100px" height="100px" viewBox="0 0 100 100" enable-background="new 0 0 100 100" xml:space="preserve">
<g id="XMLID_2_">
	<g>
		<path fill="#08519C" d="M48.835,93.435c-1.21-1.646-29.711-40.613-29.711-57.284c0-17.317,14.082-31.414,31.413-31.414
			c17.317,0,31.413,14.096,31.413,31.414c0,16.67-28.501,55.637-29.711,57.284l-1.14,1.547c-0.126,0.184-0.337,0.282-0.562,0.282
			c-0.225,0-0.436-0.099-0.562-0.282L48.835,93.435z"/>
	</g>
	<g>
		<path fill="none" stroke="#595959" stroke-width="1.5" stroke-miterlimit="10" d="M50.537,4.737
			c-17.332,0-31.413,14.096-31.413,31.414c0,16.67,28.501,55.637,29.711,57.284l1.14,1.547c0.126,0.184,0.337,0.282,0.562,0.282
			c0.226,0,0.437-0.099,0.562-0.282l1.14-1.547c1.21-1.646,29.711-40.613,29.711-57.284C81.95,18.833,67.854,4.737,50.537,4.737z"/>
	</g>
</g>
</svg>
