<?xml version="1.0" encoding="utf-8"?>
<!-- Generator: Adobe Illustrator 16.0.0, SVG Export Plug-In . SVG Version: 6.00 Build 0)  -->
<!DOCTYPE svg PUBLIC "-//W3C//DTD SVG 1.1//EN" "http://www.w3.org/Graphics/SVG/1.1/DTD/svg11.dtd">
<svg version="1.1" id="Icons" xmlns="http://www.w3.org/2000/svg" xmlns:xlink="http://www.w3.org/1999/xlink" x="0px" y="0px"
	 width="100px" height="100px" viewBox="0 0 100 100" enable-background="new 0 0 100 100" xml:space="preserve">
<g id="XMLID_2_">
	<g>
		<path fill="#EFF3FF" d="M63.78,76.5c-5.891,9.21-11.03,16.26-11.54,16.94L51.1,94.98c-0.13,0.189-0.34,0.279-0.56,0.279
			c-0.23,0-0.44-0.09-0.56-0.279l-1.15-1.54c-0.5-0.69-5.65-7.73-11.53-16.94H63.78z"/>
	</g>
	<g>
		<path fill="#FFFFFF" opacity="0.7" stroke="#000000" stroke-width="1.5" stroke-miterlimit="10" d="M81.95,36.15c0,9.79-9.82,27.25-18.17,40.35
			H37.3c-8.36-13.1-18.18-30.56-18.18-40.35c0-17.32,14.09-31.41,31.42-31.41C67.85,4.74,81.95,18.83,81.95,36.15z"/>
		<path fill="none" stroke="#000000" stroke-width="1.5" stroke-miterlimit="10" d="M63.78,76.5
			c-5.891,9.21-11.03,16.26-11.54,16.94L51.1,94.98c-0.13,0.189-0.34,0.279-0.56,0.279c-0.23,0-0.44-0.09-0.56-0.279l-1.15-1.54
			c-0.5-0.69-5.65-7.73-11.53-16.94H63.78z"/>
	</g>
</g>
</svg>
